<?xml version="1.0" encoding="UTF-8" standalone="no"?>
<svg
   xmlns:dc="http://purl.org/dc/elements/1.1/"
   xmlns:cc="http://creativecommons.org/ns#"
   xmlns:rdf="http://www.w3.org/1999/02/22-rdf-syntax-ns#"
   xmlns:svg="http://www.w3.org/2000/svg"
   xmlns="http://www.w3.org/2000/svg"
   viewBox="0 0 816 1056"
   height="1056"
   width="816"
   xml:space="preserve"
   id="svg2"
   version="1.1"><metadata
     id="metadata8"><rdf:RDF><cc:Work
         rdf:about=""><dc:format>image/svg+xml</dc:format><dc:type
           rdf:resource="http://purl.org/dc/dcmitype/StillImage" /></cc:Work></rdf:RDF></metadata><defs
     id="defs6"><clipPath
       id="clipPath18"
       clipPathUnits="userSpaceOnUse"><path
         id="path16"
         d="M 0,792 H 612 V 0 H 0 Z" /></clipPath></defs><g
     transform="matrix(1.3333333,0,0,-1.3333333,0,1056)"
     id="g10"><g
       id="g12"><g
         clip-path="url(#clipPath18)"
         id="g14"><g
           transform="translate(605.7402,473.6299)"
           id="g20"><path
             id="path22"
             style="fill:#e4f4f5;fill-opacity:1;fill-rule:nonzero;stroke:none"
             d="m 0,0 c 0,-164.233 -133.137,-297.37 -297.37,-297.37 -164.233,0 -297.37,133.137 -297.37,297.37 0,164.233 133.137,297.37 297.37,297.37 C -133.137,297.37 0,164.233 0,0" /></g><g
           transform="translate(398.3857,560.2275)"
           id="g24"><path
             id="path26"
             style="fill:#5ab9b6;fill-opacity:1;fill-rule:nonzero;stroke:none"
             d="M 0,0 C 0,0 65.121,-40.381 51.86,-99.188 38.6,-157.996 -65.754,-220.263 -65.754,-220.263 Z" /></g><g
           transform="translate(225.3364,560.2275)"
           id="g28"><path
             id="path30"
             style="fill:#5ab9b6;fill-opacity:1;fill-rule:nonzero;stroke:none"
             d="M 0,0 C 0,0 -65.121,-40.381 -51.861,-99.188 -38.6,-157.996 65.754,-220.263 65.754,-220.263 Z" /></g><g
           transform="translate(253.5591,314.5674)"
           id="g32"><path
             id="path34"
             style="fill:#5dafaf;fill-opacity:1;fill-rule:nonzero;stroke:none"
             d="M 0,0 32.614,-127.085 60.1,0 87.372,-129.812 116.993,2.183 58.497,12 Z" /></g><g
           transform="translate(379.9023,613.4517)"
           id="g36"><path
             id="path38"
             style="fill:#ea9f8a;fill-opacity:1;fill-rule:nonzero;stroke:none"
             d="m 0,0 c 0,-8.201 -4.34,-14.849 -9.693,-14.849 -5.353,0 -9.693,6.648 -9.693,14.849 0,8.201 4.34,14.849 9.693,14.849 C -4.34,14.849 0,8.201 0,0" /></g><g
           transform="translate(279.7383,620.3682)"
           id="g40"><path
             id="path42"
             style="fill:#ea9f8a;fill-opacity:1;fill-rule:nonzero;stroke:none"
             d="m 0,0 c 0,-8.201 -4.34,-14.849 -9.693,-14.849 -5.353,0 -9.693,6.648 -9.693,14.849 0,8.201 4.34,14.849 9.693,14.849 C -4.34,14.849 0,8.201 0,0" /></g><g
           transform="translate(235.0078,570.6792)"
           id="g44"><path
             id="path46"
             style="fill:#9cd8d9;fill-opacity:1;fill-rule:nonzero;stroke:none"
             d="m 0,0 c 0,0 170.994,44.148 193.44,-58.145 22.446,-102.292 -58.766,-215.736 -58.766,-215.736 l -119.919,4.848 c 0,0 -54.665,126.884 -56.79,179.657 C -44.483,-28.572 0,0 0,0" /></g><g
           transform="translate(381.7812,509.3994)"
           id="g48"><path
             id="path50"
             style="fill:#7fcecc;fill-opacity:1;fill-rule:nonzero;stroke:none"
             d="m 0,0 c 0,-42.572 -39.409,-77.083 -88.022,-77.083 -48.613,0 -88.022,34.511 -88.022,77.083 0,42.572 39.409,77.083 88.022,77.083 C -39.409,77.083 0,42.572 0,0" /></g><g
           transform="translate(407.3213,520.3335)"
           id="g52"><path
             id="path54"
             style="fill:none;stroke:#333e3a;stroke-width:1;stroke-linecap:butt;stroke-linejoin:miter;stroke-miterlimit:10;stroke-dasharray:none;stroke-opacity:1"
             d="m 0,0 c 0,-43.227 -41.178,-78.269 -91.974,-78.269 -50.796,0 -91.973,35.042 -91.973,78.269 0,43.227 41.177,78.269 91.973,78.269 C -41.178,78.269 0,43.227 0,0 Z" /></g><g
           transform="translate(261.8452,610.9062)"
           id="g56"><path
             id="path58"
             style="fill:#fabca7;fill-opacity:1;fill-rule:nonzero;stroke:none"
             d="m 0,0 c 0,0 -72.118,-99.362 5.609,-118.594 77.726,-19.231 151.848,7.212 128.209,70.115 C 110.179,14.423 72.918,68.512 47.277,50.482 21.635,32.453 0,0 0,0" /></g><g
           transform="translate(259.0186,606.7803)"
           id="g60"><path
             id="path62"
             style="fill:#289e82;fill-opacity:1;fill-rule:nonzero;stroke:none"
             d="m 0,0 c 0,0 3.227,-27.125 49.703,-27.125 46.476,0 68.287,24.947 68.287,24.947 0,0 5.562,-8.755 11.69,-20.925 1.763,-3.502 3.574,-7.288 5.312,-11.229 7.307,-16.562 13.34,-35.872 9.265,-48.484 -6.359,-19.682 -34.797,-49.681 -87.513,-44.072 -52.716,5.609 -87.572,17.228 -89.576,49.681 C -34.835,-44.754 0,0 0,0" /></g><g
           transform="translate(312.0557,602.6416)"
           id="g64"><path
             id="path66"
             style="fill:#ecf7fb;fill-opacity:1;fill-rule:nonzero;stroke:none"
             d="m 0,0 c 0,-8.924 -7.235,-16.159 -16.159,-16.159 -8.924,0 -16.158,7.235 -16.158,16.159 0,8.924 7.234,16.158 16.158,16.158 C -7.235,16.158 0,8.924 0,0" /></g><g
           transform="translate(357.875,602.6416)"
           id="g68"><path
             id="path70"
             style="fill:#ecf7fb;fill-opacity:1;fill-rule:nonzero;stroke:none"
             d="m 0,0 c 0,-8.326 -6.75,-15.076 -15.075,-15.076 -8.326,0 -15.076,6.75 -15.076,15.076 0,8.326 6.75,15.076 15.076,15.076 C -6.75,15.076 0,8.326 0,0" /></g><g
           transform="translate(274.9302,628.2466)"
           id="g72"><path
             id="path74"
             style="fill:#9ed6e5;fill-opacity:1;fill-rule:nonzero;stroke:none"
             d="m 0,0 c 0,0 36.596,11.506 59.833,5.497 23.239,-6.01 30.283,-8.228 30.283,-8.228 0,0 -19.064,54.303 -45.707,48.694 C 16.625,40.113 0,0 0,0" /></g><g
           transform="translate(321.2461,618.7568)"
           id="g76"><path
             id="path78"
             style="fill:none;stroke:#565757;stroke-width:1;stroke-linecap:butt;stroke-linejoin:miter;stroke-miterlimit:10;stroke-dasharray:none;stroke-opacity:1"
             d="m 0,0 58.856,9.349 3.401,-13.315 c 0,0 -4.25,-27.481 -38.529,-30.881 -18.942,-1.878 -21.815,8.204 -21.815,8.204 z" /></g><g
           transform="translate(320.6406,618.7568)"
           id="g80"><path
             id="path82"
             style="fill:none;stroke:#4f5050;stroke-width:1;stroke-linecap:butt;stroke-linejoin:miter;stroke-miterlimit:10;stroke-dasharray:none;stroke-opacity:1"
             d="m 0,0 -58.856,9.349 -3.4,-13.315 c 0,0 4.25,-27.481 38.529,-30.881 18.942,-1.878 21.815,8.204 21.815,8.204 z" /></g><g
           transform="translate(346.5059,597.0674)"
           id="g84"><path
             id="path86"
             style="fill:#2a383d;fill-opacity:1;fill-rule:nonzero;stroke:none"
             d="m 0,0 c 2.046,-2.046 2.046,-5.365 0,-7.412 -2.047,-2.046 -5.366,-2.046 -7.412,0 -2.047,2.047 -2.047,5.366 0,7.412 2.046,2.047 5.365,2.047 7.412,0" /></g><g
           transform="translate(346.7129,596.2393)"
           id="g88"><path
             id="path90"
             style="fill:#c5c5c6;fill-opacity:1;fill-rule:nonzero;stroke:none"
             d="m 0,0 c 0,-0.868 -0.704,-1.571 -1.571,-1.571 -0.868,0 -1.572,0.703 -1.572,1.571 0,0.868 0.704,1.571 1.572,1.571 C -0.704,1.571 0,0.868 0,0" /></g><g
           transform="translate(300.2861,593.3613)"
           id="g92"><path
             id="path94"
             style="fill:#2a383d;fill-opacity:1;fill-rule:nonzero;stroke:none"
             d="m 0,0 c 0,-2.895 -2.347,-5.241 -5.241,-5.241 -2.895,0 -5.241,2.346 -5.241,5.241 0,2.895 2.346,5.241 5.241,5.241 C -2.347,5.241 0,2.895 0,0" /></g><g
           transform="translate(298.958,596.2393)"
           id="g96"><path
             id="path98"
             style="fill:#c5c5c6;fill-opacity:1;fill-rule:nonzero;stroke:none"
             d="m 0,0 c 0,-0.868 -0.703,-1.571 -1.571,-1.571 -0.868,0 -1.571,0.703 -1.571,1.571 0,0.868 0.703,1.571 1.571,1.571 C -0.703,1.571 0,0.868 0,0" /></g><g
           transform="translate(328.3916,607.0903)"
           id="g100"><path
             id="path102"
             style="fill:#ea9f8a;fill-opacity:1;fill-rule:nonzero;stroke:none"
             d="M 0,0 34.021,5.595 19.182,12.722 0,9.534 Z" /></g><g
           transform="translate(312.0557,608.5425)"
           id="g104"><path
             id="path106"
             style="fill:#ea9f8a;fill-opacity:1;fill-rule:nonzero;stroke:none"
             d="M 0,0 -34.021,5.594 -19.182,12.722 0,9.533 Z" /></g><g
           transform="translate(254.8779,549.5283)"
           id="g108"><path
             id="path110"
             style="fill:#35b77c;fill-opacity:1;fill-rule:nonzero;stroke:none"
             d="m 0,0 c 7.54,3.8 15.708,5.961 24.074,6.95 7.892,0.933 15.897,1.291 23.842,1.246 14.922,-0.084 30.26,-1.956 43.999,-8.101 3.865,-1.729 7.633,-3.757 11.121,-6.164 3.245,-2.24 6.148,-4.967 7.999,-8.486 0.942,1.224 1.883,2.449 2.823,3.673 -13.834,1.989 -27.704,3.982 -41.681,4.602 -6.486,0.288 -13.035,0.414 -19.474,-0.547 -2.885,-0.43 -5.724,-1.138 -8.423,-2.253 -2.698,-1.114 -5.579,-2.538 -7.556,-4.748 -2.343,-2.617 -2.881,-6.276 -0.537,-9.079 1.793,-2.146 4.741,-3.112 7.39,-3.659 1.321,-0.272 2.701,0.385 3.075,1.746 0.34,1.238 -0.418,2.801 -1.746,3.076 -1.658,0.342 -3.921,0.804 -4.995,2.148 -0.286,0.359 -0.423,0.773 -0.174,1.426 0.346,0.911 1.309,1.653 2.087,2.177 4.277,2.879 9.398,4.138 14.478,4.605 5.672,0.523 11.422,0.334 17.101,0.05 6.132,-0.307 12.249,-0.872 18.349,-1.578 6.942,-0.803 13.86,-1.793 20.777,-2.788 2.124,-0.305 3.917,1.596 2.824,3.673 C 111.715,-5.12 104.615,-0.648 97.848,2.787 90.723,6.403 83.078,8.934 75.261,10.546 59.381,13.821 42.782,13.808 26.697,12.232 16.493,11.233 6.672,8.953 -2.523,4.317 -5.397,2.869 -2.869,-1.446 0,0" /></g><g
           transform="translate(286.1733,187.4824)"
           id="g112"><path
             id="path114"
             style="fill:#5dafaf;fill-opacity:1;fill-rule:nonzero;stroke:none"
             d="m 0,0 c 0,0 23.529,-16.647 10.443,-17.539 -13.085,-0.893 -59.33,-1.339 -59.33,-1.339 0,0 -3.421,15.763 9.962,14.127 13.383,-1.636 30.93,-8.03 33.606,-3.569 C -2.642,-3.859 0,0 0,0" /></g><g
           transform="translate(340.9648,185.6982)"
           id="g116"><path
             id="path118"
             style="fill:#5dafaf;fill-opacity:1;fill-rule:nonzero;stroke:none"
             d="m 0,0 c 0,0 -23.529,-16.647 -10.444,-17.539 13.086,-0.893 59.331,-1.339 59.331,-1.339 0,0 3.42,15.763 -9.963,14.127 C 25.541,-6.387 7.994,-12.781 5.318,-8.32 2.642,-3.859 0,0 0,0" /></g><g
           transform="translate(310.8437,442.1572)"
           id="g120"><path
             id="path122"
             style="fill:none;stroke:#333e3a;stroke-width:1;stroke-linecap:butt;stroke-linejoin:miter;stroke-miterlimit:10;stroke-dasharray:none;stroke-opacity:1"
             d="M 0,0 C 0,0 15.118,-14.563 6.961,-27.998 -1.195,-41.432 -5.521,-56.785 0,-63.503" /></g><g
           transform="translate(319.3574,371.4229)"
           id="g124"><path
             id="path126"
             style="fill:#2b2d2d;fill-opacity:1;fill-rule:nonzero;stroke:none"
             d="m 0,0 c 0,-3.993 -3.237,-7.231 -7.231,-7.231 -3.995,0 -7.232,3.238 -7.232,7.231 0,3.994 3.237,7.231 7.232,7.231 C -3.237,7.231 0,3.994 0,0" /></g><g
           transform="translate(319.3574,371.4229)"
           id="g128"><path
             id="path130"
             style="fill:none;stroke:#333e3a;stroke-width:1;stroke-linecap:butt;stroke-linejoin:miter;stroke-miterlimit:10;stroke-dasharray:none;stroke-opacity:1"
             d="m 0,0 c 0,-3.993 -3.237,-7.231 -7.231,-7.231 -3.995,0 -7.232,3.238 -7.232,7.231 0,3.994 3.237,7.231 7.232,7.231 C -3.237,7.231 0,3.994 0,0 Z" /></g><g
           transform="translate(80.6699,718.7183)"
           id="g132"><path
             id="path134"
             style="fill:#b73938;fill-opacity:1;fill-rule:nonzero;stroke:none"
             d="M 0,0 4.824,-1.566 C 4.604,-1.996 4.414,-2.446 4.257,-2.916 4.184,-3.137 4.122,-3.359 4.065,-3.581 l -4.744,1.54 c -0.839,-1.11 -2.315,-1.628 -3.702,-1.178 -1.744,0.567 -2.685,2.444 -2.103,4.194 0.583,1.749 2.468,2.709 4.212,2.142 C -0.884,2.667 -0.008,1.386 0,0" /></g><g
           transform="translate(80.6699,705.4277)"
           id="g136"><path
             id="path138"
             style="fill:#b73938;fill-opacity:1;fill-rule:nonzero;stroke:none"
             d="M 0,0 4.824,1.557 C 4.604,1.984 4.414,2.431 4.257,2.899 4.184,3.119 4.122,3.339 4.065,3.56 L -0.679,2.028 C -1.518,3.133 -2.994,3.647 -4.381,3.2 -6.125,2.637 -7.066,0.77 -6.484,-0.969 -5.901,-2.709 -4.016,-3.663 -2.272,-3.1 -0.884,-2.652 -0.008,-1.378 0,0" /></g><g
           transform="translate(121.5122,738.5601)"
           id="g140"><path
             id="path142"
             style="fill:#b73938;fill-opacity:1;fill-rule:nonzero;stroke:none"
             d="m 0,0 -2.332,-4.499 c 0.456,-0.158 0.904,-0.351 1.343,-0.584 0.205,-0.108 0.404,-0.226 0.599,-0.348 l 2.293,4.424 C 3.271,-1.229 4.678,-0.576 5.349,0.718 6.192,2.344 5.553,4.362 3.921,5.226 2.29,6.089 0.284,5.472 -0.559,3.846 -1.229,2.552 -0.959,1.011 0,0" /></g><g
           transform="translate(93.9321,736.4092)"
           id="g144"><path
             id="path146"
             style="fill:#e25152;fill-opacity:1;fill-rule:nonzero;stroke:none"
             d="m 0,0 3.068,-4.082 c 0.334,0.342 0.699,0.663 1.093,0.957 0.185,0.139 0.375,0.266 0.567,0.389 L 1.711,1.278 C 2.489,2.419 2.496,3.977 1.613,5.151 0.504,6.627 -1.584,6.935 -3.052,5.839 -4.519,4.743 -4.81,2.658 -3.701,1.182 -2.818,0.008 -1.316,-0.423 0,0" /></g><g
           transform="translate(136.9243,718.7183)"
           id="g148"><path
             id="path150"
             style="fill:#b73938;fill-opacity:1;fill-rule:nonzero;stroke:none"
             d="m 0,0 -4.824,-1.566 c 0.22,-0.43 0.41,-0.88 0.567,-1.35 0.074,-0.221 0.135,-0.443 0.192,-0.665 l 4.744,1.54 c 0.84,-1.11 2.315,-1.628 3.702,-1.178 1.744,0.567 2.685,2.444 2.103,4.194 C 5.902,2.724 4.016,3.684 2.272,3.117 0.885,2.667 0.008,1.386 0,0" /></g><g
           transform="translate(121.5122,685.6987)"
           id="g152"><path
             id="path154"
             style="fill:#b73938;fill-opacity:1;fill-rule:nonzero;stroke:none"
             d="m 0,0 -2.332,4.473 c 0.456,0.157 0.904,0.35 1.343,0.58 0.205,0.109 0.404,0.226 0.599,0.347 L 1.903,1.001 C 3.271,1.222 4.678,0.573 5.349,-0.714 6.192,-2.331 5.553,-4.337 3.921,-5.196 2.29,-6.055 0.284,-5.44 -0.559,-3.823 -1.229,-2.537 -0.959,-1.005 0,0" /></g><g
           transform="translate(93.9321,687.8374)"
           id="g156"><path
             id="path158"
             style="fill:#e25152;fill-opacity:1;fill-rule:nonzero;stroke:none"
             d="M 0,0 3.068,4.059 C 3.402,3.719 3.767,3.4 4.161,3.107 4.346,2.97 4.536,2.843 4.728,2.721 L 1.711,-1.271 C 2.489,-2.405 2.496,-3.955 1.613,-5.122 0.504,-6.589 -1.584,-6.895 -3.052,-5.805 -4.519,-4.715 -4.81,-2.643 -3.701,-1.175 -2.818,-0.008 -1.316,0.421 0,0" /></g><g
           transform="translate(136.9243,705.4277)"
           id="g160"><path
             id="path162"
             style="fill:#b73938;fill-opacity:1;fill-rule:nonzero;stroke:none"
             d="m 0,0 -4.824,1.557 c 0.22,0.427 0.41,0.874 0.567,1.342 0.074,0.22 0.135,0.44 0.192,0.661 L 0.679,2.028 C 1.519,3.133 2.994,3.647 4.381,3.2 6.125,2.637 7.066,0.77 6.484,-0.969 5.902,-2.709 4.016,-3.663 2.272,-3.1 0.885,-2.652 0.008,-1.378 0,0" /></g><g
           transform="translate(136.4595,711.7485)"
           id="g164"><path
             id="path166"
             style="fill:#d49a8d;fill-opacity:1;fill-rule:nonzero;stroke:none"
             d="m 0,0 c 0,-14.881 -12.005,-26.944 -26.814,-26.944 -14.81,0 -26.815,12.063 -26.815,26.944 0,14.88 12.005,26.944 26.815,26.944 C -12.005,26.944 0,14.88 0,0" /></g><g
           transform="translate(108.5713,742.0742)"
           id="g168"><path
             id="path170"
             style="fill:#b73938;fill-opacity:1;fill-rule:nonzero;stroke:none"
             d="m 0,0 v -5.12 c 0.476,0.074 0.961,0.113 1.457,0.113 0.232,0 0.462,-0.012 0.69,-0.028 V 0 c 1.315,0.449 2.262,1.697 2.262,3.17 0,1.851 -1.493,3.351 -3.335,3.351 -1.842,0 -3.335,-1.5 -3.335,-3.351 C -2.261,1.697 -1.314,0.449 0,0" /></g><g
           transform="translate(82.8916,726.5957)"
           id="g172"><path
             id="path174"
             style="fill:#e25152;fill-opacity:1;fill-rule:nonzero;stroke:none"
             d="m 0,0 4.177,-2.932 c 0.212,0.434 0.459,0.857 0.742,1.265 0.133,0.192 0.274,0.375 0.419,0.553 L 1.229,1.769 C 1.615,3.109 1.139,4.604 -0.062,5.447 -1.572,6.506 -3.651,6.136 -4.706,4.618 -5.76,3.101 -5.391,1.012 -3.881,-0.047 -2.68,-0.891 -1.119,-0.825 0,0" /></g><g
           transform="translate(133.8882,729.8237)"
           id="g176"><path
             id="path178"
             style="fill:#b73938;fill-opacity:1;fill-rule:nonzero;stroke:none"
             d="m 0,0 -3.938,-3.249 c 0.358,-0.322 0.697,-0.675 1.011,-1.06 0.148,-0.18 0.285,-0.366 0.417,-0.554 l 3.873,3.195 c 1.179,-0.735 2.74,-0.679 3.873,0.256 1.423,1.174 1.63,3.286 0.461,4.716 C 4.528,4.734 2.427,4.942 1.003,3.768 -0.129,2.833 -0.488,1.306 0,0" /></g><g
           transform="translate(109.2524,681.0464)"
           id="g180"><path
             id="path182"
             style="fill:#b73938;fill-opacity:1;fill-rule:nonzero;stroke:none"
             d="M 0,0 V 5.049 C 0.476,4.977 0.962,4.938 1.457,4.938 c 0.232,0 0.462,0.011 0.69,0.027 L 2.147,0 c 1.315,-0.443 2.262,-1.674 2.262,-3.126 0,-1.825 -1.493,-3.305 -3.335,-3.305 -1.842,0 -3.335,1.48 -3.335,3.305 0,1.452 0.947,2.683 2.261,3.126" /></g><g
           transform="translate(83.5728,696.3115)"
           id="g184"><path
             id="path186"
             style="fill:#e25152;fill-opacity:1;fill-rule:nonzero;stroke:none"
             d="M 0,0 4.177,2.891 C 4.389,2.463 4.636,2.046 4.919,1.644 5.052,1.455 5.193,1.274 5.338,1.098 L 1.229,-1.745 c 0.386,-1.321 -0.09,-2.796 -1.291,-3.627 -1.51,-1.045 -3.589,-0.679 -4.644,0.817 -1.054,1.496 -0.685,3.556 0.825,4.602 C -2.68,0.878 -1.119,0.814 0,0" /></g><g
           transform="translate(133.8301,693.9409)"
           id="g188"><path
             id="path190"
             style="fill:#b73938;fill-opacity:1;fill-rule:nonzero;stroke:none"
             d="m 0,0 -3.938,3.204 c 0.358,0.318 0.697,0.666 1.011,1.045 0.148,0.178 0.285,0.361 0.417,0.546 L 1.363,1.645 C 2.542,2.37 4.103,2.314 5.236,1.393 6.659,0.234 6.866,-1.848 5.697,-3.258 4.528,-4.669 2.427,-4.874 1.003,-3.715 -0.129,-2.794 -0.488,-1.288 0,0" /></g><g
           transform="translate(102.0229,729.2739)"
           id="g192"><path
             id="path194"
             style="fill:#b73938;fill-opacity:1;fill-rule:nonzero;stroke:none"
             d="m 0,0 c 0,-1.863 -1.503,-3.373 -3.356,-3.373 -1.854,0 -3.357,1.51 -3.357,3.373 0,1.863 1.503,3.373 3.357,3.373 C -1.503,3.373 0,1.863 0,0" /></g><g
           transform="translate(91.5859,717.3892)"
           id="g196"><path
             id="path198"
             style="fill:#b73938;fill-opacity:1;fill-rule:nonzero;stroke:none"
             d="m 0,0 c 0,-1.863 -1.503,-3.373 -3.356,-3.373 -1.854,0 -3.357,1.51 -3.357,3.373 0,1.863 1.503,3.373 3.357,3.373 C -1.503,3.373 0,1.863 0,0" /></g><g
           transform="translate(96.271,702.5752)"
           id="g200"><path
             id="path202"
             style="fill:#b73938;fill-opacity:1;fill-rule:nonzero;stroke:none"
             d="m 0,0 c 0,-1.863 -1.503,-3.373 -3.356,-3.373 -1.854,0 -3.357,1.51 -3.357,3.373 0,1.863 1.503,3.373 3.357,3.373 C -1.503,3.373 0,1.863 0,0" /></g><g
           transform="translate(109.6665,691.896)"
           id="g204"><path
             id="path206"
             style="fill:#b73938;fill-opacity:1;fill-rule:nonzero;stroke:none"
             d="m 0,0 c 0,-1.862 -1.502,-3.373 -3.356,-3.373 -1.854,0 -3.357,1.511 -3.357,3.373 0,1.863 1.503,3.373 3.357,3.373 C -1.502,3.373 0,1.863 0,0" /></g><g
           transform="translate(127.2329,697.4785)"
           id="g208"><path
             id="path210"
             style="fill:#b73938;fill-opacity:1;fill-rule:nonzero;stroke:none"
             d="m 0,0 c 0,-1.863 -1.503,-3.373 -3.356,-3.373 -1.854,0 -3.357,1.51 -3.357,3.373 0,1.862 1.503,3.373 3.357,3.373 C -1.503,3.373 0,1.862 0,0" /></g><g
           transform="translate(133.2485,710.6436)"
           id="g212"><path
             id="path214"
             style="fill:#b73938;fill-opacity:1;fill-rule:nonzero;stroke:none"
             d="m 0,0 c 0,-1.862 -1.503,-3.373 -3.356,-3.373 -1.854,0 -3.357,1.511 -3.357,3.373 0,1.863 1.503,3.373 3.357,3.373 C -1.503,3.373 0,1.863 0,0" /></g><g
           transform="translate(124.769,725.9014)"
           id="g216"><path
             id="path218"
             style="fill:#b73938;fill-opacity:1;fill-rule:nonzero;stroke:none"
             d="m 0,0 c 0,-1.863 -1.502,-3.373 -3.356,-3.373 -1.854,0 -3.357,1.51 -3.357,3.373 0,1.862 1.503,3.373 3.357,3.373 C -1.502,3.373 0,1.862 0,0" /></g><g
           transform="translate(106.3101,717.3491)"
           id="g220"><path
             id="path222"
             style="fill:#b73938;fill-opacity:1;fill-rule:nonzero;stroke:none"
             d="m 0,0 c 0,-1.588 -1.281,-2.876 -2.862,-2.876 -1.581,0 -2.862,1.288 -2.862,2.876 0,1.588 1.281,2.876 2.862,2.876 C -1.281,2.876 0,1.588 0,0" /></g><g
           transform="translate(120.52,714.2915)"
           id="g224"><path
             id="path226"
             style="fill:#b73938;fill-opacity:1;fill-rule:nonzero;stroke:none"
             d="m 0,0 c 0,-1.71 -1.38,-3.097 -3.083,-3.097 -1.702,0 -3.083,1.387 -3.083,3.097 0,1.711 1.381,3.098 3.083,3.098 C -1.38,3.098 0,1.711 0,0" /></g><g
           transform="translate(112.4033,704.7446)"
           id="g228"><path
             id="path230"
             style="fill:#b73938;fill-opacity:1;fill-rule:nonzero;stroke:none"
             d="m 0,0 c 0,-1.69 -1.364,-3.061 -3.046,-3.061 -1.683,0 -3.047,1.371 -3.047,3.061 0,1.691 1.364,3.062 3.047,3.062 C -1.364,3.062 0,1.691 0,0" /></g><g
           transform="translate(113.6611,731.2876)"
           id="g232"><path
             id="path234"
             style="fill:#b73938;fill-opacity:1;fill-rule:nonzero;stroke:none"
             d="m 0,0 c 0,-1.672 -1.35,-3.028 -3.014,-3.028 -1.665,0 -3.014,1.356 -3.014,3.028 0,1.673 1.349,3.029 3.014,3.029 C -1.35,3.029 0,1.673 0,0" /></g><g
           transform="translate(76.7505,318.5469)"
           id="g236"><path
             id="path238"
             style="fill:#b73938;fill-opacity:1;fill-rule:nonzero;stroke:none"
             d="M 0,0 3.786,-1.122 C 3.613,-1.43 3.463,-1.753 3.341,-2.09 3.283,-2.248 3.234,-2.407 3.19,-2.566 l -3.723,1.104 C -1.192,-2.259 -2.35,-2.63 -3.438,-2.307 -4.807,-1.9 -5.545,-0.555 -5.088,0.699 -4.631,1.953 -3.152,2.642 -1.783,2.235 -0.694,1.912 -0.006,0.994 0,0" /></g><g
           transform="translate(76.7505,309.0195)"
           id="g240"><path
             id="path242"
             style="fill:#b73938;fill-opacity:1;fill-rule:nonzero;stroke:none"
             d="M 0,0 3.786,1.117 C 3.613,1.423 3.463,1.743 3.341,2.079 3.283,2.236 3.234,2.395 3.19,2.553 L -0.533,1.454 C -1.192,2.246 -2.35,2.615 -3.438,2.294 -4.807,1.891 -5.545,0.553 -5.088,-0.694 -4.631,-1.941 -3.152,-2.625 -1.783,-2.222 -0.694,-1.9 -0.006,-0.987 0,0" /></g><g
           transform="translate(108.8022,332.7715)"
           id="g244"><path
             id="path246"
             style="fill:#b73938;fill-opacity:1;fill-rule:nonzero;stroke:none"
             d="m 0,0 -1.83,-3.225 c 0.357,-0.113 0.709,-0.252 1.053,-0.419 0.162,-0.078 0.318,-0.162 0.471,-0.25 l 1.799,3.172 C 2.567,-0.881 3.671,-0.413 4.198,0.515 4.859,1.681 4.357,3.127 3.077,3.746 1.796,4.365 0.223,3.922 -0.439,2.757 -0.965,1.829 -0.753,0.725 0,0" /></g><g
           transform="translate(87.1582,331.2295)"
           id="g248"><path
             id="path250"
             style="fill:#e25152;fill-opacity:1;fill-rule:nonzero;stroke:none"
             d="m 0,0 2.407,-2.926 c 0.263,0.244 0.549,0.475 0.858,0.686 0.146,0.099 0.295,0.19 0.445,0.278 L 1.343,0.916 C 1.953,1.734 1.958,2.852 1.266,3.692 0.396,4.751 -1.243,4.972 -2.395,4.186 -3.546,3.399 -3.774,1.905 -2.904,0.848 -2.212,0.006 -1.033,-0.304 0,0" /></g><g
           transform="translate(120.897,318.5469)"
           id="g252"><path
             id="path254"
             style="fill:#b73938;fill-opacity:1;fill-rule:nonzero;stroke:none"
             d="m 0,0 -3.786,-1.122 c 0.173,-0.308 0.323,-0.631 0.446,-0.968 0.057,-0.158 0.106,-0.317 0.15,-0.476 l 3.723,1.104 C 1.192,-2.259 2.35,-2.63 3.438,-2.307 4.807,-1.9 5.545,-0.555 5.088,0.699 4.631,1.953 3.152,2.642 1.783,2.235 0.694,1.912 0.006,0.994 0,0" /></g><g
           transform="translate(108.8022,294.877)"
           id="g256"><path
             id="path258"
             style="fill:#b73938;fill-opacity:1;fill-rule:nonzero;stroke:none"
             d="m 0,0 -1.83,3.206 c 0.357,0.113 0.709,0.251 1.053,0.417 0.162,0.077 0.318,0.161 0.471,0.248 L 1.493,0.718 C 2.567,0.876 3.671,0.41 4.198,-0.512 4.859,-1.671 4.357,-3.109 3.077,-3.725 1.796,-4.34 0.223,-3.899 -0.439,-2.741 -0.965,-1.818 -0.753,-0.721 0,0" /></g><g
           transform="translate(87.1582,296.4102)"
           id="g260"><path
             id="path262"
             style="fill:#e25152;fill-opacity:1;fill-rule:nonzero;stroke:none"
             d="M 0,0 2.407,2.909 C 2.67,2.666 2.956,2.438 3.265,2.228 3.411,2.129 3.56,2.038 3.71,1.95 L 1.343,-0.911 c 0.61,-0.814 0.615,-1.924 -0.077,-2.761 -0.87,-1.052 -2.509,-1.27 -3.661,-0.49 -1.151,0.781 -1.379,2.267 -0.509,3.319 C -2.212,-0.006 -1.033,0.302 0,0" /></g><g
           transform="translate(120.897,309.0195)"
           id="g264"><path
             id="path266"
             style="fill:#b73938;fill-opacity:1;fill-rule:nonzero;stroke:none"
             d="m 0,0 -3.786,1.117 c 0.173,0.306 0.323,0.626 0.446,0.962 0.057,0.157 0.106,0.316 0.15,0.474 L 0.533,1.454 C 1.192,2.246 2.35,2.615 3.438,2.294 4.807,1.891 5.545,0.553 5.088,-0.694 4.631,-1.941 3.152,-2.625 1.783,-2.222 0.694,-1.9 0.006,-0.987 0,0" /></g><g
           transform="translate(120.5322,313.5508)"
           id="g268"><path
             id="path270"
             style="fill:#d49a8d;fill-opacity:1;fill-rule:nonzero;stroke:none"
             d="m 0,0 c 0,-10.667 -9.421,-19.314 -21.043,-19.314 -11.622,0 -21.043,8.647 -21.043,19.314 0,10.668 9.421,19.315 21.043,19.315 C -9.421,19.315 0,10.668 0,0" /></g><g
           transform="translate(98.6465,335.29)"
           id="g272"><path
             id="path274"
             style="fill:#b73938;fill-opacity:1;fill-rule:nonzero;stroke:none"
             d="m 0,0 v -3.67 c 0.373,0.053 0.754,0.081 1.143,0.081 0.183,0 0.363,-0.008 0.543,-0.019 V 0 C 2.717,0.322 3.459,1.217 3.459,2.272 3.459,3.6 2.288,4.675 0.843,4.675 -0.603,4.675 -1.774,3.6 -1.774,2.272 -1.774,1.217 -1.032,0.322 0,0" /></g><g
           transform="translate(78.4937,324.1943)"
           id="g276"><path
             id="path278"
             style="fill:#e25152;fill-opacity:1;fill-rule:nonzero;stroke:none"
             d="m 0,0 3.278,-2.102 c 0.167,0.312 0.36,0.615 0.583,0.908 0.104,0.136 0.215,0.267 0.328,0.396 L 0.965,1.269 C 1.268,2.229 0.894,3.301 -0.049,3.905 -1.233,4.664 -2.865,4.398 -3.693,3.311 -4.521,2.224 -4.23,0.726 -3.045,-0.034 -2.103,-0.639 -0.878,-0.592 0,0" /></g><g
           transform="translate(118.5142,326.5088)"
           id="g280"><path
             id="path282"
             style="fill:#b73938;fill-opacity:1;fill-rule:nonzero;stroke:none"
             d="m 0,0 -3.09,-2.329 c 0.281,-0.232 0.547,-0.484 0.794,-0.76 0.115,-0.129 0.223,-0.263 0.326,-0.397 l 3.04,2.291 C 1.996,-1.723 3.22,-1.683 4.109,-1.013 5.226,-0.171 5.388,1.343 4.471,2.368 3.554,3.394 1.905,3.542 0.788,2.7 -0.101,2.031 -0.383,0.937 0,0" /></g><g
           transform="translate(99.1807,291.542)"
           id="g284"><path
             id="path286"
             style="fill:#b73938;fill-opacity:1;fill-rule:nonzero;stroke:none"
             d="M 0,0 V 3.619 C 0.374,3.567 0.755,3.54 1.144,3.54 c 0.182,0 0.362,0.008 0.542,0.02 V 0 C 2.717,-0.317 3.46,-1.2 3.46,-2.241 3.46,-3.55 2.289,-4.61 0.843,-4.61 c -1.446,0 -2.617,1.06 -2.617,2.369 0,1.041 0.743,1.924 1.774,2.241" /></g><g
           transform="translate(79.0283,302.4844)"
           id="g288"><path
             id="path290"
             style="fill:#e25152;fill-opacity:1;fill-rule:nonzero;stroke:none"
             d="M 0,0 3.278,2.073 C 3.445,1.767 3.638,1.467 3.86,1.179 3.965,1.043 4.076,0.914 4.189,0.788 L 0.965,-1.25 C 1.268,-2.198 0.894,-3.254 -0.049,-3.851 -1.234,-4.6 -2.865,-4.337 -3.693,-3.265 -4.521,-2.192 -4.23,-0.715 -3.046,0.034 -2.103,0.63 -0.878,0.584 0,0" /></g><g
           transform="translate(118.4688,300.7852)"
           id="g292"><path
             id="path294"
             style="fill:#b73938;fill-opacity:1;fill-rule:nonzero;stroke:none"
             d="m 0,0 -3.09,2.297 c 0.281,0.228 0.547,0.477 0.793,0.749 0.116,0.128 0.224,0.26 0.327,0.392 L 1.069,1.18 C 1.995,1.699 3.22,1.659 4.109,0.999 5.226,0.169 5.388,-1.324 4.471,-2.336 3.554,-3.347 1.905,-3.493 0.788,-2.663 -0.101,-2.003 -0.383,-0.923 0,0" /></g><g
           transform="translate(93.5073,326.1143)"
           id="g296"><path
             id="path298"
             style="fill:#b73938;fill-opacity:1;fill-rule:nonzero;stroke:none"
             d="m 0,0 c 0,-1.335 -1.179,-2.418 -2.634,-2.418 -1.454,0 -2.634,1.083 -2.634,2.418 0,1.335 1.18,2.418 2.634,2.418 C -1.179,2.418 0,1.335 0,0" /></g><g
           transform="translate(85.3169,317.5947)"
           id="g300"><path
             id="path302"
             style="fill:#b73938;fill-opacity:1;fill-rule:nonzero;stroke:none"
             d="m 0,0 c 0,-1.335 -1.18,-2.418 -2.634,-2.418 -1.455,0 -2.635,1.083 -2.635,2.418 0,1.335 1.18,2.418 2.635,2.418 C -1.18,2.418 0,1.335 0,0" /></g><g
           transform="translate(88.9937,306.9746)"
           id="g304"><path
             id="path306"
             style="fill:#b73938;fill-opacity:1;fill-rule:nonzero;stroke:none"
             d="m 0,0 c 0,-1.335 -1.18,-2.417 -2.634,-2.417 -1.455,0 -2.635,1.082 -2.635,2.417 0,1.336 1.18,2.418 2.635,2.418 C -1.18,2.418 0,1.336 0,0" /></g><g
           transform="translate(99.5059,299.3193)"
           id="g308"><path
             id="path310"
             style="fill:#b73938;fill-opacity:1;fill-rule:nonzero;stroke:none"
             d="m 0,0 c 0,-1.335 -1.179,-2.417 -2.634,-2.417 -1.454,0 -2.634,1.082 -2.634,2.417 0,1.336 1.18,2.418 2.634,2.418 C -1.179,2.418 0,1.336 0,0" /></g><g
           transform="translate(113.2915,303.3213)"
           id="g312"><path
             id="path314"
             style="fill:#b73938;fill-opacity:1;fill-rule:nonzero;stroke:none"
             d="m 0,0 c 0,-1.335 -1.179,-2.418 -2.634,-2.418 -1.455,0 -2.634,1.083 -2.634,2.418 0,1.335 1.179,2.418 2.634,2.418 C -1.179,2.418 0,1.335 0,0" /></g><g
           transform="translate(118.0122,312.7588)"
           id="g316"><path
             id="path318"
             style="fill:#b73938;fill-opacity:1;fill-rule:nonzero;stroke:none"
             d="m 0,0 c 0,-1.335 -1.179,-2.417 -2.634,-2.417 -1.455,0 -2.634,1.082 -2.634,2.417 0,1.336 1.179,2.418 2.634,2.418 C -1.179,2.418 0,1.336 0,0" /></g><g
           transform="translate(111.3579,323.6963)"
           id="g320"><path
             id="path322"
             style="fill:#b73938;fill-opacity:1;fill-rule:nonzero;stroke:none"
             d="m 0,0 c 0,-1.335 -1.179,-2.417 -2.634,-2.417 -1.455,0 -2.634,1.082 -2.634,2.417 0,1.336 1.179,2.418 2.634,2.418 C -1.179,2.418 0,1.336 0,0" /></g><g
           transform="translate(96.8721,317.5664)"
           id="g324"><path
             id="path326"
             style="fill:#b73938;fill-opacity:1;fill-rule:nonzero;stroke:none"
             d="m 0,0 c 0,-1.139 -1.006,-2.063 -2.246,-2.063 -1.241,0 -2.246,0.924 -2.246,2.063 0,1.139 1.005,2.062 2.246,2.062 C -1.006,2.062 0,1.139 0,0" /></g><g
           transform="translate(108.0234,315.374)"
           id="g328"><path
             id="path330"
             style="fill:#b73938;fill-opacity:1;fill-rule:nonzero;stroke:none"
             d="m 0,0 c 0,-1.227 -1.083,-2.221 -2.419,-2.221 -1.336,0 -2.419,0.994 -2.419,2.221 0,1.227 1.083,2.221 2.419,2.221 C -1.083,2.221 0,1.227 0,0" /></g><g
           transform="translate(101.6538,308.5303)"
           id="g332"><path
             id="path334"
             style="fill:#b73938;fill-opacity:1;fill-rule:nonzero;stroke:none"
             d="m 0,0 c 0,-1.212 -1.071,-2.194 -2.391,-2.194 -1.32,0 -2.391,0.982 -2.391,2.194 0,1.212 1.071,2.194 2.391,2.194 C -1.071,2.194 0,1.212 0,0" /></g><g
           transform="translate(102.6406,327.5576)"
           id="g336"><path
             id="path338"
             style="fill:#b73938;fill-opacity:1;fill-rule:nonzero;stroke:none"
             d="m 0,0 c 0,-1.198 -1.059,-2.171 -2.365,-2.171 -1.306,0 -2.365,0.973 -2.365,2.171 0,1.199 1.059,2.172 2.365,2.172 C -1.059,2.172 0,1.199 0,0" /></g><g
           transform="translate(496.5654,280.3193)"
           id="g340"><path
             id="path342"
             style="fill:#b73938;fill-opacity:1;fill-rule:nonzero;stroke:none"
             d="M 0,0 3.785,-1.122 C 3.613,-1.431 3.464,-1.753 3.341,-2.09 3.283,-2.248 3.234,-2.407 3.189,-2.566 l -3.722,1.104 c -0.658,-0.797 -1.817,-1.168 -2.905,-0.845 -1.369,0.406 -2.108,1.752 -1.651,3.006 0.457,1.254 1.938,1.943 3.306,1.536 C -0.694,1.912 -0.007,0.994 0,0" /></g><g
           transform="translate(496.5654,270.792)"
           id="g344"><path
             id="path346"
             style="fill:#b73938;fill-opacity:1;fill-rule:nonzero;stroke:none"
             d="M 0,0 3.785,1.116 C 3.613,1.423 3.464,1.743 3.341,2.078 3.283,2.236 3.234,2.394 3.189,2.553 L -0.533,1.454 C -1.191,2.246 -2.35,2.615 -3.438,2.294 -4.807,1.891 -5.546,0.553 -5.089,-0.694 -4.632,-1.941 -3.151,-2.626 -1.783,-2.222 -0.694,-1.901 -0.007,-0.987 0,0" /></g><g
           transform="translate(528.6172,294.5439)"
           id="g348"><path
             id="path350"
             style="fill:#b73938;fill-opacity:1;fill-rule:nonzero;stroke:none"
             d="m 0,0 -1.83,-3.225 c 0.357,-0.113 0.709,-0.253 1.054,-0.419 0.161,-0.078 0.317,-0.163 0.469,-0.25 l 1.8,3.171 C 2.567,-0.881 3.671,-0.413 4.197,0.515 4.859,1.68 4.357,3.127 3.077,3.746 1.797,4.365 0.223,3.922 -0.438,2.757 -0.965,1.829 -0.753,0.725 0,0" /></g><g
           transform="translate(506.9727,293.002)"
           id="g352"><path
             id="path354"
             style="fill:#e25152;fill-opacity:1;fill-rule:nonzero;stroke:none"
             d="m 0,0 2.408,-2.927 c 0.263,0.245 0.548,0.476 0.858,0.687 0.145,0.099 0.295,0.19 0.445,0.278 L 1.344,0.916 C 1.954,1.733 1.959,2.851 1.267,3.692 0.396,4.751 -1.243,4.971 -2.395,4.186 -3.546,3.399 -3.774,1.905 -2.904,0.848 -2.212,0.006 -1.033,-0.304 0,0" /></g><g
           transform="translate(540.7119,280.3193)"
           id="g356"><path
             id="path358"
             style="fill:#b73938;fill-opacity:1;fill-rule:nonzero;stroke:none"
             d="m 0,0 -3.786,-1.122 c 0.173,-0.309 0.322,-0.631 0.445,-0.968 0.058,-0.158 0.107,-0.317 0.152,-0.476 l 3.722,1.104 C 1.191,-2.259 2.35,-2.63 3.438,-2.307 4.807,-1.901 5.546,-0.555 5.089,0.699 4.632,1.953 3.151,2.642 1.783,2.235 0.694,1.912 0.007,0.994 0,0" /></g><g
           transform="translate(528.6172,256.6494)"
           id="g360"><path
             id="path362"
             style="fill:#b73938;fill-opacity:1;fill-rule:nonzero;stroke:none"
             d="m 0,0 -1.83,3.206 c 0.357,0.113 0.709,0.251 1.054,0.416 0.161,0.078 0.317,0.162 0.469,0.249 l 1.8,-3.153 C 2.567,0.876 3.671,0.41 4.197,-0.512 4.859,-1.671 4.357,-3.109 3.077,-3.725 1.797,-4.341 0.223,-3.9 -0.438,-2.741 -0.965,-1.818 -0.753,-0.721 0,0" /></g><g
           transform="translate(506.9727,258.1826)"
           id="g364"><path
             id="path366"
             style="fill:#e25152;fill-opacity:1;fill-rule:nonzero;stroke:none"
             d="M 0,0 2.408,2.909 C 2.671,2.666 2.956,2.438 3.266,2.228 3.411,2.129 3.561,2.037 3.711,1.95 L 1.344,-0.911 c 0.61,-0.814 0.615,-1.924 -0.077,-2.761 -0.871,-1.052 -2.51,-1.271 -3.662,-0.49 -1.151,0.781 -1.379,2.267 -0.509,3.319 C -2.212,-0.006 -1.033,0.302 0,0" /></g><g
           transform="translate(540.7119,270.792)"
           id="g368"><path
             id="path370"
             style="fill:#b73938;fill-opacity:1;fill-rule:nonzero;stroke:none"
             d="m 0,0 -3.786,1.116 c 0.173,0.307 0.322,0.627 0.445,0.962 0.058,0.158 0.107,0.316 0.152,0.475 L 0.533,1.454 C 1.191,2.246 2.35,2.615 3.438,2.294 4.807,1.891 5.546,0.553 5.089,-0.694 4.632,-1.941 3.151,-2.626 1.783,-2.222 0.694,-1.901 0.007,-0.987 0,0" /></g><g
           transform="translate(540.3467,275.3232)"
           id="g372"><path
             id="path374"
             style="fill:#d49a8d;fill-opacity:1;fill-rule:nonzero;stroke:none"
             d="m 0,0 c 0,-10.667 -9.421,-19.315 -21.043,-19.315 -11.621,0 -21.043,8.648 -21.043,19.315 0,10.668 9.422,19.315 21.043,19.315 C -9.421,19.315 0,10.668 0,0" /></g><g
           transform="translate(518.4609,297.0625)"
           id="g376"><path
             id="path378"
             style="fill:#b73938;fill-opacity:1;fill-rule:nonzero;stroke:none"
             d="m 0,0 v -3.67 c 0.373,0.053 0.755,0.081 1.144,0.081 0.182,0 0.363,-0.008 0.542,-0.02 V 0 C 2.717,0.322 3.46,1.217 3.46,2.272 3.46,3.6 2.288,4.675 0.843,4.675 -0.603,4.675 -1.774,3.6 -1.774,2.272 -1.774,1.217 -1.031,0.322 0,0" /></g><g
           transform="translate(498.3086,285.9668)"
           id="g380"><path
             id="path382"
             style="fill:#e25152;fill-opacity:1;fill-rule:nonzero;stroke:none"
             d="m 0,0 3.278,-2.102 c 0.166,0.312 0.36,0.615 0.582,0.908 0.105,0.136 0.215,0.267 0.328,0.396 L 0.965,1.269 C 1.268,2.229 0.895,3.3 -0.049,3.904 -1.233,4.664 -2.865,4.398 -3.692,3.311 -4.521,2.223 -4.23,0.726 -3.046,-0.034 -2.103,-0.639 -0.878,-0.592 0,0" /></g><g
           transform="translate(538.3291,288.2812)"
           id="g384"><path
             id="path386"
             style="fill:#b73938;fill-opacity:1;fill-rule:nonzero;stroke:none"
             d="m 0,0 -3.091,-2.329 c 0.282,-0.232 0.548,-0.484 0.794,-0.76 0.116,-0.13 0.224,-0.263 0.327,-0.397 l 3.039,2.29 c 0.926,-0.527 2.151,-0.487 3.04,0.183 1.118,0.842 1.28,2.356 0.362,3.381 C 3.554,3.394 1.905,3.542 0.788,2.7 -0.102,2.03 -0.383,0.936 0,0" /></g><g
           transform="translate(518.9961,253.3145)"
           id="g388"><path
             id="path390"
             style="fill:#b73938;fill-opacity:1;fill-rule:nonzero;stroke:none"
             d="m 0,0 v 3.619 c 0.373,-0.052 0.755,-0.08 1.144,-0.08 0.181,0 0.362,0.009 0.542,0.021 V 0 C 2.717,-0.318 3.46,-1.2 3.46,-2.241 3.46,-3.55 2.288,-4.61 0.843,-4.61 c -1.446,0 -2.617,1.06 -2.617,2.369 0,1.041 0.743,1.923 1.774,2.241" /></g><g
           transform="translate(498.8428,264.2568)"
           id="g392"><path
             id="path394"
             style="fill:#e25152;fill-opacity:1;fill-rule:nonzero;stroke:none"
             d="M 0,0 3.278,2.073 C 3.445,1.766 3.639,1.467 3.861,1.179 3.966,1.043 4.076,0.914 4.189,0.787 L 0.966,-1.251 C 1.269,-2.198 0.895,-3.255 -0.048,-3.851 -1.233,-4.6 -2.864,-4.338 -3.692,-3.265 -4.52,-2.192 -4.23,-0.715 -3.045,0.034 -2.103,0.63 -0.878,0.584 0,0" /></g><g
           transform="translate(538.2832,262.5576)"
           id="g396"><path
             id="path398"
             style="fill:#b73938;fill-opacity:1;fill-rule:nonzero;stroke:none"
             d="m 0,0 -3.09,2.297 c 0.281,0.227 0.547,0.477 0.794,0.749 0.115,0.128 0.223,0.259 0.327,0.392 L 1.07,1.18 C 1.996,1.699 3.221,1.659 4.109,0.999 5.227,0.168 5.389,-1.324 4.472,-2.336 3.555,-3.347 1.905,-3.493 0.788,-2.663 -0.101,-2.003 -0.383,-0.923 0,0" /></g><g
           transform="translate(513.3223,287.8867)"
           id="g400"><path
             id="path402"
             style="fill:#b73938;fill-opacity:1;fill-rule:nonzero;stroke:none"
             d="m 0,0 c 0,-1.335 -1.179,-2.418 -2.634,-2.418 -1.455,0 -2.634,1.083 -2.634,2.418 0,1.335 1.179,2.418 2.634,2.418 C -1.179,2.418 0,1.335 0,0" /></g><g
           transform="translate(505.1318,279.3672)"
           id="g404"><path
             id="path406"
             style="fill:#b73938;fill-opacity:1;fill-rule:nonzero;stroke:none"
             d="m 0,0 c 0,-1.336 -1.18,-2.418 -2.635,-2.418 -1.454,0 -2.634,1.082 -2.634,2.418 0,1.335 1.18,2.418 2.634,2.418 C -1.18,2.418 0,1.335 0,0" /></g><g
           transform="translate(508.8086,268.7471)"
           id="g408"><path
             id="path410"
             style="fill:#b73938;fill-opacity:1;fill-rule:nonzero;stroke:none"
             d="m 0,0 c 0,-1.335 -1.18,-2.417 -2.635,-2.417 -1.454,0 -2.634,1.082 -2.634,2.417 0,1.336 1.18,2.418 2.634,2.418 C -1.18,2.418 0,1.336 0,0" /></g><g
           transform="translate(519.3213,261.0918)"
           id="g412"><path
             id="path414"
             style="fill:#b73938;fill-opacity:1;fill-rule:nonzero;stroke:none"
             d="m 0,0 c 0,-1.335 -1.18,-2.418 -2.635,-2.418 -1.454,0 -2.634,1.083 -2.634,2.418 0,1.336 1.18,2.418 2.634,2.418 C -1.18,2.418 0,1.336 0,0" /></g><g
           transform="translate(533.1064,265.0937)"
           id="g416"><path
             id="path418"
             style="fill:#b73938;fill-opacity:1;fill-rule:nonzero;stroke:none"
             d="m 0,0 c 0,-1.335 -1.18,-2.418 -2.634,-2.418 -1.455,0 -2.635,1.083 -2.635,2.418 0,1.335 1.18,2.418 2.635,2.418 C -1.18,2.418 0,1.335 0,0" /></g><g
           transform="translate(537.8271,274.5312)"
           id="g420"><path
             id="path422"
             style="fill:#b73938;fill-opacity:1;fill-rule:nonzero;stroke:none"
             d="m 0,0 c 0,-1.335 -1.179,-2.418 -2.634,-2.418 -1.455,0 -2.634,1.083 -2.634,2.418 0,1.336 1.179,2.418 2.634,2.418 C -1.179,2.418 0,1.336 0,0" /></g><g
           transform="translate(531.1729,285.4687)"
           id="g424"><path
             id="path426"
             style="fill:#b73938;fill-opacity:1;fill-rule:nonzero;stroke:none"
             d="m 0,0 c 0,-1.335 -1.179,-2.418 -2.634,-2.418 -1.455,0 -2.634,1.083 -2.634,2.418 0,1.336 1.179,2.418 2.634,2.418 C -1.179,2.418 0,1.336 0,0" /></g><g
           transform="translate(516.6865,279.3379)"
           id="g428"><path
             id="path430"
             style="fill:#b73938;fill-opacity:1;fill-rule:nonzero;stroke:none"
             d="m 0,0 c 0,-1.139 -1.005,-2.062 -2.246,-2.062 -1.24,0 -2.246,0.923 -2.246,2.062 0,1.139 1.006,2.063 2.246,2.063 C -1.005,2.063 0,1.139 0,0" /></g><g
           transform="translate(527.8379,277.1465)"
           id="g432"><path
             id="path434"
             style="fill:#b73938;fill-opacity:1;fill-rule:nonzero;stroke:none"
             d="m 0,0 c 0,-1.227 -1.083,-2.221 -2.419,-2.221 -1.336,0 -2.419,0.994 -2.419,2.221 0,1.227 1.083,2.221 2.419,2.221 C -1.083,2.221 0,1.227 0,0" /></g><g
           transform="translate(521.4687,270.3027)"
           id="g436"><path
             id="path438"
             style="fill:#b73938;fill-opacity:1;fill-rule:nonzero;stroke:none"
             d="m 0,0 c 0,-1.212 -1.07,-2.194 -2.391,-2.194 -1.321,0 -2.391,0.982 -2.391,2.194 0,1.212 1.07,2.194 2.391,2.194 C -1.07,2.194 0,1.212 0,0" /></g><g
           transform="translate(522.4561,289.3301)"
           id="g440"><path
             id="path442"
             style="fill:#b73938;fill-opacity:1;fill-rule:nonzero;stroke:none"
             d="m 0,0 c 0,-1.198 -1.06,-2.171 -2.366,-2.171 -1.306,0 -2.365,0.973 -2.365,2.171 0,1.199 1.059,2.172 2.365,2.172 C -1.06,2.172 0,1.199 0,0" /></g><g
           transform="translate(435.6768,736.6294)"
           id="g444"><path
             id="path446"
             style="fill:#b73938;fill-opacity:1;fill-rule:nonzero;stroke:none"
             d="M 0,0 2.662,-0.928 C 2.541,-1.183 2.436,-1.449 2.349,-1.728 2.309,-1.859 2.274,-1.991 2.243,-2.122 l -2.618,0.913 c -0.463,-0.659 -1.277,-0.965 -2.043,-0.698 -0.962,0.335 -1.481,1.448 -1.16,2.485 0.321,1.037 1.362,1.606 2.324,1.27 C -0.488,1.581 -0.005,0.822 0,0" /></g><g
           transform="translate(435.6768,728.752)"
           id="g448"><path
             id="path450"
             style="fill:#b73938;fill-opacity:1;fill-rule:nonzero;stroke:none"
             d="M 0,0 2.662,0.923 C 2.541,1.176 2.436,1.441 2.349,1.718 2.309,1.849 2.274,1.979 2.243,2.11 L -0.375,1.202 C -0.838,1.857 -1.652,2.162 -2.418,1.896 -3.38,1.563 -3.899,0.457 -3.578,-0.575 -3.257,-1.606 -2.216,-2.171 -1.254,-1.837 -0.488,-1.572 -0.005,-0.817 0,0" /></g><g
           transform="translate(458.2148,748.3906)"
           id="g452"><path
             id="path454"
             style="fill:#b73938;fill-opacity:1;fill-rule:nonzero;stroke:none"
             d="m 0,0 -1.287,-2.667 c 0.251,-0.093 0.499,-0.208 0.741,-0.345 0.113,-0.065 0.223,-0.135 0.33,-0.207 L 1.05,-0.597 C 1.806,-0.728 2.582,-0.341 2.952,0.426 3.417,1.389 3.064,2.586 2.164,3.098 1.264,3.609 0.156,3.243 -0.309,2.279 -0.679,1.513 -0.529,0.6 0,0" /></g><g
           transform="translate(442.9951,747.1157)"
           id="g456"><path
             id="path458"
             style="fill:#e25152;fill-opacity:1;fill-rule:nonzero;stroke:none"
             d="m 0,0 1.693,-2.419 c 0.185,0.202 0.385,0.392 0.603,0.567 0.102,0.082 0.207,0.158 0.313,0.23 L 0.944,0.758 C 1.374,1.434 1.377,2.357 0.891,3.054 0.278,3.928 -0.874,4.11 -1.684,3.461 -2.494,2.811 -2.654,1.576 -2.042,0.701 -1.556,0.005 -0.727,-0.251 0,0" /></g><g
           transform="translate(466.7197,736.6294)"
           id="g460"><path
             id="path462"
             style="fill:#b73938;fill-opacity:1;fill-rule:nonzero;stroke:none"
             d="m 0,0 -2.662,-0.928 c 0.121,-0.255 0.226,-0.521 0.313,-0.8 0.04,-0.131 0.075,-0.263 0.106,-0.394 l 2.618,0.913 C 0.838,-1.868 1.652,-2.174 2.418,-1.907 3.38,-1.572 3.899,-0.459 3.578,0.578 3.257,1.615 2.216,2.184 1.254,1.848 0.488,1.581 0.005,0.822 0,0" /></g><g
           transform="translate(458.2148,717.0581)"
           id="g464"><path
             id="path466"
             style="fill:#b73938;fill-opacity:1;fill-rule:nonzero;stroke:none"
             d="m 0,0 -1.287,2.651 c 0.251,0.093 0.499,0.207 0.741,0.344 0.113,0.065 0.223,0.134 0.33,0.206 L 1.05,0.593 C 1.806,0.724 2.582,0.339 2.952,-0.423 3.417,-1.381 3.064,-2.571 2.164,-3.08 1.264,-3.589 0.156,-3.225 -0.309,-2.267 -0.679,-1.504 -0.529,-0.596 0,0" /></g><g
           transform="translate(442.9951,718.3257)"
           id="g468"><path
             id="path470"
             style="fill:#e25152;fill-opacity:1;fill-rule:nonzero;stroke:none"
             d="M 0,0 1.693,2.406 C 1.878,2.204 2.078,2.015 2.296,1.842 2.398,1.76 2.503,1.685 2.609,1.612 L 0.944,-0.753 c 0.43,-0.673 0.433,-1.591 -0.053,-2.283 -0.613,-0.87 -1.765,-1.051 -2.575,-0.405 -0.81,0.646 -0.97,1.875 -0.358,2.744 C -1.556,-0.005 -0.727,0.25 0,0" /></g><g
           transform="translate(466.7197,728.752)"
           id="g472"><path
             id="path474"
             style="fill:#b73938;fill-opacity:1;fill-rule:nonzero;stroke:none"
             d="m 0,0 -2.662,0.923 c 0.121,0.253 0.226,0.518 0.313,0.795 0.04,0.131 0.075,0.261 0.106,0.392 L 0.375,1.202 C 0.838,1.857 1.652,2.162 2.418,1.896 3.38,1.563 3.899,0.457 3.578,-0.575 3.257,-1.606 2.216,-2.171 1.254,-1.837 0.488,-1.572 0.005,-0.817 0,0" /></g><g
           transform="translate(466.4629,732.4985)"
           id="g476"><path
             id="path478"
             style="fill:#d49a8d;fill-opacity:1;fill-rule:nonzero;stroke:none"
             d="m 0,0 c 0,-8.82 -6.625,-15.971 -14.797,-15.971 -8.172,0 -14.797,7.151 -14.797,15.971 0,8.82 6.625,15.971 14.797,15.971 C -6.625,15.971 0,8.82 0,0" /></g><g
           transform="translate(451.0732,750.4736)"
           id="g480"><path
             id="path482"
             style="fill:#b73938;fill-opacity:1;fill-rule:nonzero;stroke:none"
             d="m 0,0 v -3.035 c 0.263,0.044 0.531,0.067 0.804,0.067 0.129,0 0.256,-0.007 0.382,-0.016 V 0 c 0.724,0.267 1.247,1.006 1.247,1.879 0,1.097 -0.824,1.986 -1.84,1.986 -1.017,0 -1.84,-0.889 -1.84,-1.986 C -1.247,1.006 -0.725,0.267 0,0" /></g><g
           transform="translate(436.9023,741.2988)"
           id="g484"><path
             id="path486"
             style="fill:#e25152;fill-opacity:1;fill-rule:nonzero;stroke:none"
             d="m 0,0 2.306,-1.738 c 0.117,0.258 0.253,0.509 0.409,0.75 0.073,0.113 0.151,0.222 0.23,0.328 L 0.679,1.049 C 0.892,1.843 0.629,2.729 -0.034,3.229 -0.867,3.857 -2.015,3.637 -2.597,2.738 -3.179,1.838 -2.975,0.6 -2.142,-0.028 -1.479,-0.528 -0.617,-0.489 0,0" /></g><g
           transform="translate(465.0439,743.2124)"
           id="g488"><path
             id="path490"
             style="fill:#b73938;fill-opacity:1;fill-rule:nonzero;stroke:none"
             d="m 0,0 -2.173,-1.926 c 0.198,-0.191 0.385,-0.4 0.558,-0.628 0.082,-0.107 0.157,-0.217 0.23,-0.328 l 2.137,1.893 C 1.403,-1.424 2.265,-1.391 2.89,-0.837 3.675,-0.141 3.789,1.11 3.145,1.958 2.499,2.806 1.34,2.929 0.554,2.233 -0.071,1.679 -0.27,0.774 0,0" /></g><g
           transform="translate(451.4492,714.3003)"
           id="g492"><path
             id="path494"
             style="fill:#b73938;fill-opacity:1;fill-rule:nonzero;stroke:none"
             d="M 0,0 V 2.993 C 0.263,2.95 0.531,2.927 0.804,2.927 c 0.129,0 0.256,0.007 0.382,0.016 V 0 c 0.724,-0.263 1.247,-0.992 1.247,-1.853 0,-1.082 -0.824,-1.959 -1.84,-1.959 -1.017,0 -1.84,0.877 -1.84,1.959 0,0.861 0.522,1.59 1.247,1.853" /></g><g
           transform="translate(437.2783,723.3486)"
           id="g496"><path
             id="path498"
             style="fill:#e25152;fill-opacity:1;fill-rule:nonzero;stroke:none"
             d="M 0,0 2.306,1.713 C 2.422,1.46 2.559,1.212 2.715,0.974 2.788,0.862 2.866,0.755 2.945,0.651 L 0.679,-1.035 c 0.213,-0.783 -0.05,-1.656 -0.713,-2.149 -0.833,-0.62 -1.981,-0.403 -2.563,0.484 -0.582,0.887 -0.378,2.108 0.455,2.727 C -1.479,0.521 -0.617,0.482 0,0" /></g><g
           transform="translate(465.0117,721.9434)"
           id="g500"><path
             id="path502"
             style="fill:#b73938;fill-opacity:1;fill-rule:nonzero;stroke:none"
             d="m 0,0 -2.173,1.899 c 0.198,0.188 0.385,0.394 0.559,0.62 0.081,0.105 0.157,0.213 0.229,0.323 L 0.753,0.975 C 1.403,1.405 2.265,1.372 2.89,0.825 3.676,0.139 3.789,-1.095 3.145,-1.932 2.499,-2.768 1.34,-2.889 0.555,-2.202 -0.07,-1.656 -0.269,-0.764 0,0" /></g><g
           transform="translate(447.46,742.8862)"
           id="g504"><path
             id="path506"
             style="fill:#b73938;fill-opacity:1;fill-rule:nonzero;stroke:none"
             d="m 0,0 c 0,-1.104 -0.829,-1.999 -1.853,-1.999 -1.022,0 -1.851,0.895 -1.851,1.999 0,1.104 0.829,2 1.851,2 C -0.829,2 0,1.104 0,0" /></g><g
           transform="translate(441.7002,735.8418)"
           id="g508"><path
             id="path510"
             style="fill:#b73938;fill-opacity:1;fill-rule:nonzero;stroke:none"
             d="m 0,0 c 0,-1.104 -0.829,-1.999 -1.853,-1.999 -1.022,0 -1.851,0.895 -1.851,1.999 0,1.104 0.829,1.999 1.851,1.999 C -0.829,1.999 0,1.104 0,0" /></g><g
           transform="translate(444.2861,727.061)"
           id="g512"><path
             id="path514"
             style="fill:#b73938;fill-opacity:1;fill-rule:nonzero;stroke:none"
             d="m 0,0 c 0,-1.104 -0.83,-1.999 -1.853,-1.999 -1.023,0 -1.852,0.895 -1.852,1.999 0,1.104 0.829,1.999 1.852,1.999 C -0.83,1.999 0,1.104 0,0" /></g><g
           transform="translate(451.6777,720.7314)"
           id="g516"><path
             id="path518"
             style="fill:#b73938;fill-opacity:1;fill-rule:nonzero;stroke:none"
             d="m 0,0 c 0,-1.104 -0.829,-1.999 -1.852,-1.999 -1.023,0 -1.852,0.895 -1.852,1.999 0,1.104 0.829,1.999 1.852,1.999 C -0.829,1.999 0,1.104 0,0" /></g><g
           transform="translate(461.3721,724.04)"
           id="g520"><path
             id="path522"
             style="fill:#b73938;fill-opacity:1;fill-rule:nonzero;stroke:none"
             d="m 0,0 c 0,-1.104 -0.83,-1.999 -1.853,-1.999 -1.023,0 -1.852,0.895 -1.852,1.999 0,1.104 0.829,1.999 1.852,1.999 C -0.83,1.999 0,1.104 0,0" /></g><g
           transform="translate(464.6914,731.8437)"
           id="g524"><path
             id="path526"
             style="fill:#b73938;fill-opacity:1;fill-rule:nonzero;stroke:none"
             d="m 0,0 c 0,-1.104 -0.829,-1.999 -1.853,-1.999 -1.022,0 -1.851,0.895 -1.851,1.999 0,1.104 0.829,1.999 1.851,1.999 C -0.829,1.999 0,1.104 0,0" /></g><g
           transform="translate(460.0117,740.8872)"
           id="g528"><path
             id="path530"
             style="fill:#b73938;fill-opacity:1;fill-rule:nonzero;stroke:none"
             d="m 0,0 c 0,-1.104 -0.829,-1.999 -1.852,-1.999 -1.023,0 -1.852,0.895 -1.852,1.999 0,1.104 0.829,1.999 1.852,1.999 C -0.829,1.999 0,1.104 0,0" /></g><g
           transform="translate(449.8262,735.8184)"
           id="g532"><path
             id="path534"
             style="fill:#b73938;fill-opacity:1;fill-rule:nonzero;stroke:none"
             d="m 0,0 c 0,-0.941 -0.707,-1.705 -1.58,-1.705 -0.872,0 -1.579,0.764 -1.579,1.705 0,0.941 0.707,1.705 1.579,1.705 C -0.707,1.705 0,0.941 0,0" /></g><g
           transform="translate(457.667,734.0059)"
           id="g536"><path
             id="path538"
             style="fill:#b73938;fill-opacity:1;fill-rule:nonzero;stroke:none"
             d="m 0,0 c 0,-1.014 -0.762,-1.836 -1.701,-1.836 -0.94,0 -1.701,0.822 -1.701,1.836 0,1.014 0.761,1.836 1.701,1.836 C -0.762,1.836 0,1.014 0,0" /></g><g
           transform="translate(453.1885,728.3472)"
           id="g540"><path
             id="path542"
             style="fill:#b73938;fill-opacity:1;fill-rule:nonzero;stroke:none"
             d="m 0,0 c 0,-1.002 -0.753,-1.814 -1.682,-1.814 -0.928,0 -1.68,0.812 -1.68,1.814 0,1.002 0.752,1.814 1.68,1.814 C -0.753,1.814 0,1.002 0,0" /></g><g
           transform="translate(453.8818,744.0801)"
           id="g544"><path
             id="path546"
             style="fill:#b73938;fill-opacity:1;fill-rule:nonzero;stroke:none"
             d="m 0,0 c 0,-0.991 -0.744,-1.795 -1.663,-1.795 -0.918,0 -1.663,0.804 -1.663,1.795 0,0.991 0.745,1.795 1.663,1.795 C -0.744,1.795 0,0.991 0,0" /></g></g></g></g></svg>